<svg width="950" height="924" viewBox="0 0 950 924" fill="none" xmlns="http://www.w3.org/2000/svg">
<g filter="url(#filter0_f_8_85)">
<path fill-rule="evenodd" clip-rule="evenodd" d="M463.806 273.593C513.732 284.209 567.739 229.288 612.518 253.786C656.906 278.07 649.213 345.156 674.605 388.918C703.87 439.355 777.625 471.486 772.539 529.576C767.519 586.912 694.275 609.221 651.908 648.177C615.008 682.106 588.173 730.884 539.703 743.667C491.583 756.357 445.411 722.64 396.142 715.629C335.941 707.061 264.237 737.759 218.292 697.926C172.964 658.627 181.571 586.183 177.781 526.311C174.254 470.605 183.02 417.401 197.115 363.393C213.963 298.828 204.778 201.824 268.016 180.531C337.914 156.995 391.665 258.253 463.806 273.593Z" fill="#A66ACE"/>
</g>
<defs>
<filter id="filter0_f_8_85" x="0.300003" y="0.300003" width="949.189" height="922.896" filterUnits="userSpaceOnUse" color-interpolation-filters="sRGB">
<feFlood flood-opacity="0" result="BackgroundImageFix"/>
<feBlend mode="normal" in="SourceGraphic" in2="BackgroundImageFix" result="shape"/>
<feGaussianBlur stdDeviation="88.35" result="effect1_foregroundBlur_8_85"/>
</filter>
</defs>
</svg>
