<svg width="29" height="28" viewBox="0 0 29 28" fill="none" xmlns="http://www.w3.org/2000/svg">
<path d="M28.5 14C28.5 21.4395 22.2487 27.5 14.5 27.5C6.75133 27.5 0.5 21.4395 0.5 14C0.5 6.56055 6.75133 0.5 14.5 0.5C22.2487 0.5 28.5 6.56055 28.5 14Z" fill="#BCBCBC" stroke="#222222"/>
<path d="M14.5 23C15.5312 23 16.375 22.1231 16.375 21.0513H12.625C12.625 22.1231 13.4688 23 14.5 23ZM20.125 17.1538V12.2821C20.125 9.29077 18.5969 6.78667 15.9062 6.1241V5.46154C15.9062 4.65282 15.2781 4 14.5 4C13.7219 4 13.0938 4.65282 13.0938 5.46154V6.1241C10.4125 6.78667 8.875 9.28103 8.875 12.2821V17.1538L7 19.1026V20.0769H22V19.1026L20.125 17.1538ZM18.25 18.1282H10.75V12.2821C10.75 9.86564 12.1656 7.89744 14.5 7.89744C16.8344 7.89744 18.25 9.86564 18.25 12.2821V18.1282Z" fill="#474747"/>
</svg>
