<svg width="12" height="14" viewBox="0 0 12 14" fill="none" xmlns="http://www.w3.org/2000/svg">
<g clip-path="url(#clip0_151_24)">
<path d="M8.00015 11V11.5C8.00015 12.0304 7.78944 12.5391 7.41437 12.9142C7.03929 13.2893 6.53059 13.5 6.00015 13.5C5.46972 13.5 4.96101 13.2893 4.58594 12.9142C4.21087 12.5391 4.00015 12.0304 4.00015 11.5V11M11.3652 9.98219C10.5627 9 9.99609 8.5 9.99609 5.79219C9.99609 3.3125 8.72984 2.42906 7.68765 2C7.54922 1.94312 7.4189 1.8125 7.37672 1.67031C7.1939 1.04812 6.6814 0.5 6.00015 0.5C5.3189 0.5 4.80609 1.04844 4.62515 1.67094C4.58297 1.81469 4.45265 1.94312 4.31422 2C3.27078 2.42969 2.00578 3.31 2.00578 5.79219C2.00422 8.5 1.43765 9 0.635154 9.98219C0.302654 10.3891 0.593904 11 1.17547 11H10.828C11.4064 11 11.6958 10.3872 11.3652 9.98219Z" stroke="black" stroke-linecap="round" stroke-linejoin="round"/>
</g>
<defs>
<clipPath id="clip0_151_24">
<rect width="12" height="14" fill="white"/>
</clipPath>
</defs>
</svg>
